<svg viewBox="0 0 820 205" xmlns="http://www.w3.org/2000/svg" role="img">
  <title>BIA Lab mission schematic: Observe → Measure → Model → Design</title>
  <desc>Four-stage pipeline showing the lab's approach: observe cells via live imaging, measure with quantitative phenomics, build computational models, and achieve designable biology.</desc>
  <defs>
    <marker id="arr" markerWidth="7" markerHeight="7" refX="5.5" refY="3.5" orient="auto">
      <path d="M0,0.5 L6,3.5 L0,6.5 L1.8,3.5 Z" fill="#2a4070"/>
    </marker>
  </defs>
  <rect width="820" height="205" rx="10" fill="#0b1220"/>
  <rect width="820" height="205" rx="10" fill="none" stroke="#1a2d50" stroke-width="1"/>
  <text x="410" y="28" text-anchor="middle" font-family="ui-sans-serif,system-ui,-apple-system,sans-serif" font-size="9.5" font-weight="700" letter-spacing="2.5" fill="#4878be" opacity="0.9">BIOLOGICAL INFORMATION ARCHITECTURE LAB</text>
  <text x="410" y="49" text-anchor="middle" font-family="ui-sans-serif,system-ui,-apple-system,sans-serif" font-size="13.5" fill="#a8c0e0" letter-spacing="0.2">making biological signalling designable</text>
  <line x1="60" y1="62" x2="760" y2="62" stroke="#1e3058" stroke-width="0.8"/>
  <line x1="178" y1="116" x2="261" y2="116" stroke="#2a4070" stroke-width="1.5" marker-end="url(#arr)"/>
  <line x1="367" y1="116" x2="450" y2="116" stroke="#2a4070" stroke-width="1.5" marker-end="url(#arr)"/>
  <line x1="556" y1="116" x2="634" y2="116" stroke="#2a4070" stroke-width="1.5" marker-end="url(#arr)"/>
  <g transform="translate(125,116)">
    <circle r="48" fill="#4878be" opacity="0.07"/>
    <circle r="46" fill="none" stroke="#4878be" stroke-width="1.2" opacity="0.65"/>
    <circle r="20" fill="#4878be" opacity="0.1" stroke="#4878be" stroke-width="1.3"/>
    <circle r="8" fill="#4878be" opacity="0.55"/>
    <circle cx="0"   cy="-27" r="2.5" fill="#4878be" opacity="0.9"/>
    <circle cx="27"  cy="0"   r="2.5" fill="#4878be" opacity="0.9"/>
    <circle cx="0"   cy="27"  r="2.5" fill="#4878be" opacity="0.9"/>
    <circle cx="-27" cy="0"   r="2.5" fill="#4878be" opacity="0.9"/>
    <line x1="-9" y1="0" x2="9" y2="0" stroke="#4878be" stroke-width="0.7" opacity="0.45"/>
    <line x1="0" y1="-9" x2="0" y2="9" stroke="#4878be" stroke-width="0.7" opacity="0.45"/>
  </g>
  <text x="125" y="179" text-anchor="middle" font-family="ui-sans-serif,system-ui,sans-serif" font-size="9" font-weight="700" letter-spacing="1.8" fill="#4878be">OBSERVE</text>
  <text x="125" y="193" text-anchor="middle" font-family="ui-sans-serif,system-ui,sans-serif" font-size="8.5" fill="#506888">live-cell imaging</text>
  <g transform="translate(314,116)">
    <circle r="48" fill="#7b65b2" opacity="0.07"/>
    <circle r="46" fill="none" stroke="#7b65b2" stroke-width="1.2" opacity="0.65"/>
    <rect x="-19" y="-4"  width="8" height="16" rx="1" fill="#7b65b2" opacity="0.55"/>
    <rect x="-9"  y="-16" width="8" height="28" rx="1" fill="#7b65b2" opacity="0.75"/>
    <rect x="1"   y="-9"  width="8" height="21" rx="1" fill="#7b65b2" opacity="0.6"/>
    <rect x="11"  y="-21" width="8" height="33" rx="1" fill="#7b65b2" opacity="0.9"/>
    <polyline points="-15,-6 -5,-18 5,-11 15,-23" fill="none" stroke="#c0a0f0" stroke-width="1.6" stroke-linecap="round" stroke-linejoin="round"/>
    <circle cx="-15" cy="-6"  r="2.2" fill="#c0a0f0"/>
    <circle cx="-5"  cy="-18" r="2.2" fill="#c0a0f0"/>
    <circle cx="5"   cy="-11" r="2.2" fill="#c0a0f0"/>
    <circle cx="15"  cy="-23" r="2.2" fill="#c0a0f0"/>
    <line x1="-21" y1="12" x2="21" y2="12" stroke="#7b65b2" stroke-width="0.8" opacity="0.4"/>
  </g>
  <text x="314" y="179" text-anchor="middle" font-family="ui-sans-serif,system-ui,sans-serif" font-size="9" font-weight="700" letter-spacing="1.8" fill="#7b65b2">MEASURE</text>
  <text x="314" y="193" text-anchor="middle" font-family="ui-sans-serif,system-ui,sans-serif" font-size="8.5" fill="#506888">quantitative phenomics</text>
  <g transform="translate(503,116)">
    <circle r="48" fill="#3fa86a" opacity="0.07"/>
    <circle r="46" fill="none" stroke="#3fa86a" stroke-width="1.2" opacity="0.65"/>
    <line x1="0"    y1="-18" x2="17.1" y2="-5.6"  stroke="#3fa86a" stroke-width="1.2" opacity="0.55"/>
    <line x1="17.1" y1="-5.6" x2="10.6" y2="14.6" stroke="#3fa86a" stroke-width="1.2" opacity="0.55"/>
    <line x1="10.6" y1="14.6" x2="-10.6" y2="14.6" stroke="#3fa86a" stroke-width="1.2" opacity="0.55"/>
    <line x1="-10.6" y1="14.6" x2="-17.1" y2="-5.6" stroke="#3fa86a" stroke-width="1.2" opacity="0.55"/>
    <line x1="-17.1" y1="-5.6" x2="0" y2="-18"  stroke="#3fa86a" stroke-width="1.2" opacity="0.55"/>
    <line x1="0" y1="0" x2="0"    y2="-18"  stroke="#3fa86a" stroke-width="1" opacity="0.45"/>
    <line x1="0" y1="0" x2="17.1" y2="-5.6" stroke="#3fa86a" stroke-width="1" opacity="0.45"/>
    <line x1="0" y1="0" x2="-10.6" y2="14.6" stroke="#3fa86a" stroke-width="1" opacity="0.45"/>
    <circle cx="0"    cy="-18"  r="3.5" fill="#3fa86a"/>
    <circle cx="17.1" cy="-5.6" r="3.5" fill="#3fa86a" opacity="0.85"/>
    <circle cx="10.6" cy="14.6" r="3.5" fill="#3fa86a" opacity="0.7"/>
    <circle cx="-10.6" cy="14.6" r="3.5" fill="#3fa86a" opacity="0.7"/>
    <circle cx="-17.1" cy="-5.6" r="3.5" fill="#3fa86a" opacity="0.85"/>
    <circle cx="0" cy="0" r="5.5" fill="#3fa86a"/>
  </g>
  <text x="503" y="179" text-anchor="middle" font-family="ui-sans-serif,system-ui,sans-serif" font-size="9" font-weight="700" letter-spacing="1.8" fill="#3fa86a">MODEL</text>
  <text x="503" y="193" text-anchor="middle" font-family="ui-sans-serif,system-ui,sans-serif" font-size="8.5" fill="#506888">computational frameworks</text>
  <g transform="translate(692,116)">
    <circle r="48" fill="#5ba8d4" opacity="0.07"/>
    <circle r="46" fill="none" stroke="#5ba8d4" stroke-width="1.2" opacity="0.65"/>
    <circle r="21" fill="none" stroke="#5ba8d4" stroke-width="1.2" stroke-dasharray="4,2.5" opacity="0.65"/>
    <circle r="13" fill="none" stroke="#5ba8d4" stroke-width="1.3" opacity="0.85"/>
    <circle r="5.5" fill="#5ba8d4" opacity="0.65"/>
    <circle r="2"   fill="#5ba8d4"/>
    <line x1="0"   y1="-23" x2="0"   y2="-28" stroke="#5ba8d4" stroke-width="1.3" opacity="0.8"/>
    <line x1="23"  y1="0"   x2="28"  y2="0"   stroke="#5ba8d4" stroke-width="1.3" opacity="0.8"/>
    <line x1="0"   y1="23"  x2="0"   y2="28"  stroke="#5ba8d4" stroke-width="1.3" opacity="0.8"/>
    <line x1="-23" y1="0"   x2="-28" y2="0"   stroke="#5ba8d4" stroke-width="1.3" opacity="0.8"/>
  </g>
  <text x="692" y="179" text-anchor="middle" font-family="ui-sans-serif,system-ui,sans-serif" font-size="9" font-weight="700" letter-spacing="1.8" fill="#5ba8d4">DESIGN</text>
  <text x="692" y="193" text-anchor="middle" font-family="ui-sans-serif,system-ui,sans-serif" font-size="8.5" fill="#506888">designable biology</text>
</svg>
